<svg width="22" height="22" viewBox="0 0 22 22" fill="none" xmlns="http://www.w3.org/2000/svg">
<path fill-rule="evenodd" clip-rule="evenodd" d="M21.4077 0.000257178C21.4028 0 21.3982 0 21.3936 0C21.3789 0 21.3643 0.000514357 21.3493 0.00154307C21.2786 0.00668664 21.2112 0.0239176 21.1493 0.0511785L0.374136 8.65662C0.124673 8.76001 -0.0262905 9.0159 0.00379931 9.28439C0.0341463 9.55289 0.238346 9.76892 0.504525 9.81392C3.42324 10.3103 6.08324 11.6898 8.19647 13.8033C10.31 15.9165 11.6895 18.5765 12.1858 21.4952C12.2308 21.7614 12.4469 21.9656 12.7154 21.9959C12.738 21.9983 12.7609 21.9995 12.7835 21.9995C13.0263 21.9995 13.2485 21.8537 13.3431 21.6256L21.9457 0.856661C21.9807 0.780279 22 0.69541 22 0.606169C22 0.275952 21.7361 0.00745817 21.4077 0.000257178Z" fill="#79C6E9"/>
</svg>
